<?xml version="1.0" standalone="no"?>
<!DOCTYPE svg PUBLIC "-//W3C//DTD SVG 20010904//EN"
 "http://www.w3.org/TR/2001/REC-SVG-20010904/DTD/svg10.dtd">
<svg version="1.0" xmlns="http://www.w3.org/2000/svg"
 width="512.000000pt" height="512.000000pt" viewBox="0 0 512.000000 512.000000"
 preserveAspectRatio="xMidYMid meet">

<g transform="translate(0.000000,512.000000) scale(0.100000,-0.100000)"
fill="#000000" stroke="none">
<path d="M12 5108 c-8 -8 -12 -47 -12 -109 l0 -98 32 -23 c31 -22 43 -23 248
-28 156 -4 222 -9 240 -19 37 -20 70 -52 87 -84 11 -22 700 -2367 729 -2481 5
-20 -25 -63 -185 -263 -106 -131 -204 -263 -218 -293 -22 -46 -28 -72 -31
-155 -3 -85 -1 -109 18 -158 28 -74 89 -149 160 -198 108 -74 -22 -69 1829
-69 1514 0 1666 1 1697 16 53 25 79 69 79 134 0 65 -26 109 -79 134 -31 15
-181 16 -1670 16 -1404 0 -1642 2 -1671 14 -46 19 -72 72 -59 117 5 17 92 137
194 265 l185 233 1165 1 c1283 0 1221 -3 1342 62 76 40 174 144 215 228 17 36
208 438 422 895 l391 830 0 190 c0 173 -2 193 -20 223 -37 61 -118 132 -188
165 l-67 32 -1947 3 -1947 2 -27 87 c-34 104 -82 181 -157 249 -103 95 -99 94
-443 94 -220 0 -303 -3 -312 -12z m4761 -729 c25 -7 45 -21 58 -42 42 -67 44
-62 -396 -997 -224 -476 -418 -880 -432 -898 -13 -18 -43 -42 -66 -55 l-42
-22 -1134 0 -1133 0 -289 990 c-159 545 -292 1000 -295 1013 l-6 22 1848 0
c1267 0 1861 -3 1887 -11z"/>
<path d="M1335 963 c-184 -17 -363 -171 -421 -362 -8 -25 -14 -87 -14 -137 0
-94 15 -156 59 -243 30 -58 138 -164 200 -195 49 -25 56 -26 242 -26 l191 0
57 35 c67 40 146 121 183 185 81 142 84 328 7 482 -26 51 -120 150 -178 187
-88 57 -211 85 -326 74z m133 -318 c161 -68 161 -292 0 -360 -146 -61 -300 78
-259 233 30 110 153 170 259 127z"/>
<path d="M4111 959 c-137 -18 -294 -127 -363 -256 -77 -141 -75 -343 4 -482
40 -69 137 -165 199 -197 46 -23 56 -24 241 -24 l193 0 50 29 c226 130 315
417 203 654 -95 197 -300 305 -527 276z m186 -332 c114 -72 111 -256 -4 -324
-67 -39 -125 -41 -193 -6 -109 56 -138 179 -68 283 13 19 43 44 68 58 58 31
137 27 197 -11z"/>
</g>
</svg>
